# xmcd
#
# Track frame offsets:
# 150
# 20357
# 44320
# 61413
# 91328
# 105859
# 121310
# 142497
# 156135
# 173637
# 192273
# 207414
# 233018
# 250979
#
# Disc length: 3649 seconds
#
# Revision: 0
# Processed by: cddbd v1.4PL0 Copyright (c) Steve Scherf et al.
# Submitted via: Audion 3.0.2 (http://www.panic.com/audion/)
#
DISCID=bb0e3f0e
DTITLE=Elton John - Best Off II
DYEAR=1900
DGENRE=
TTITLE0=piste 1
TTITLE1=piste 2
TTITLE2=piste 3
TTITLE3=piste 4
TTITLE4=piste 5
TTITLE5=piste 6
TTITLE6=piste 7
TTITLE7=piste 8
TTITLE8=piste 9
TTITLE9=piste 10
TTITLE10=piste 11
TTITLE11=piste 12
TTITLE12=piste 13
TTITLE13=piste 14
EXTD=
EXTT0=
EXTT1=
EXTT2=
EXTT3=
EXTT4=
EXTT5=
EXTT6=
EXTT7=
EXTT8=
EXTT9=
EXTT10=
EXTT11=
EXTT12=
EXTT13=
PLAYORDER=
